<?xml version="1.0" standalone="no"?>
<svg xmlns="http://www.w3.org/2000/svg" viewBox="0 0 208 67" width="208" height="67"><g fill="#f1333f" color="#f1333f" transform="translate(81.56 0) scale(3.4807098) "><svg width="12.6411" height="11.9569" x="0.0" y="0.0" viewBox="0 0 12.6411 11.9569"><defs><style type="text/css">
   
    .fil0 {fill:currentColor}
   
  </style></defs><g><path class="fil0" d="M5.69604 2.79328c0.529698,0.28764 1.83458,1.85305 2.53469,1.61799 0.426767,-0.143298 -0.327412,-1.39426 -0.873048,-2.09004 0.14017,-0.294641 1.73284,-0.223885 2.20578,-0.229546 1.84337,0.927418 3.07764,2.62138 3.07764,4.55695 0,2.93121 -2.83052,5.30815 -6.32048,5.30815 -3.49026,0 -6.32063,-2.37694 -6.32063,-5.30815 0,-1.68994 0.940825,-3.19562 2.40643,-4.16787 0.327412,-0.0691169 0.403232,0.145235 1.78423,-0.162365 -0.655121,0.246527 -1.24828,1.40856 -0.980299,2.05578 0.829552,0.180538 1.88567,-1.55573 2.48568,-1.5809zm-3.02178 -0.509291c1.29699,-0.686552 1.3591,-0.717088 2.59635,-0.84996 0.272893,-0.0291959 0.669421,-0.651993 0.559043,-1.29624 0.0789482,-0.0594346 0.218821,-0.170558 0.381335,-0.128552 0.259337,0.0670315 0.401593,0.871559 0.31624,1.36044 0.959593,-0.0589877 2.43429,0.251443 2.6038,0.512717 -0.860685,-0.118124 -2.02286,0.0396231 -2.05355,0.322496 -0.094291,0.869473 0.710981,0.918481 1.00771,1.91636 -0.886604,-0.315346 -1.86988,-1.23442 -2.3184,-1.65791 -0.506907,-0.0134063 -1.26764,0.702937 -2.32748,1.60384 0,-0.871112 1.19257,-1.73373 1.06967,-1.96492 -0.0787993,-0.148065 -1.22906,0.208691 -1.83473,0.18173z"></path></g></svg></g><path fill="#353434" fill-rule="nonzero" d="M11.21 12.94Q11.76 13.87 12.14 14.33Q12.53 14.78 13.04 15Q13.56 15.22 14.45 15.26L14.45 15.26Q14.45 15.96 14.35 16.30L14.35 16.30Q11.90 16.30 10.58 16.51L10.58 16.51Q9.67 15.05 8.98 13.68L8.98 13.68L8.69 13.15Q7.94 11.81 7.33 10.91Q6.72 10.01 5.71 8.93L5.71 8.93L4.97 8.95Q4.61 8.95 4.03 8.90L4.03 8.90L4.03 13.25Q4.03 14.45 4.36 14.87Q4.68 15.29 5.62 15.34L5.62 15.34Q5.74 15.70 5.74 16.37L5.74 16.37Q4.70 16.30 2.88 16.30L2.88 16.30Q1.08 16.30 0 16.37L0 16.37Q0 15.72 0.12 15.34L0.12 15.34Q1.10 15.29 1.44 14.87Q1.78 14.45 1.78 13.25L1.78 13.25L1.78 3.12Q1.78 1.92 1.43 1.48Q1.08 1.03 0.12 1.03L0.12 1.03Q0 0.65 0 0.02L0 0.02Q0.96 0.07 2.88 0.07L2.88 0.07Q4.20 0.07 4.87 0.05L4.87 0.05L6.89 0.02Q9.48 0.02 10.80 1.14Q12.12 2.26 12.12 4.06L12.12 4.06Q12.12 5.64 11.05 6.79Q9.98 7.94 8.09 8.42L8.09 8.42Q8.93 9.31 9.50 10.16Q10.08 11.02 11.21 12.94L11.21 12.94ZM4.03 7.80Q4.61 7.87 5.09 7.87L5.09 7.87Q7.18 7.87 8.47 6.97Q9.77 6.07 9.77 4.30L9.77 4.30Q9.77 2.78 8.82 1.93Q7.87 1.08 5.81 1.08L5.81 1.08Q4.94 1.08 4.03 1.27L4.03 1.27L4.03 7.80ZM22.78 16.51Q20.71 16.51 19.13 15.74Q17.54 14.98 16.67 13.58Q15.79 12.19 15.79 10.34L15.79 10.34Q15.79 8.52 16.67 7.10Q17.54 5.69 19.14 4.91Q20.74 4.13 22.82 4.13L22.82 4.13Q24.89 4.13 26.47 4.90Q28.06 5.66 28.93 7.07Q29.81 8.47 29.81 10.30L29.81 10.30Q29.81 12.14 28.93 13.55Q28.06 14.95 26.46 15.73Q24.86 16.51 22.78 16.51L22.78 16.51ZM23.11 15.41Q25.06 15.41 26.20 14.11Q27.34 12.82 27.34 10.66L27.34 10.66Q27.34 9.10 26.71 7.86Q26.09 6.62 24.97 5.93Q23.86 5.23 22.46 5.23L22.46 5.23Q20.52 5.23 19.39 6.54Q18.26 7.85 18.26 9.98L18.26 9.98Q18.26 11.59 18.89 12.83Q19.51 14.06 20.62 14.74Q21.72 15.41 23.11 15.41L23.11 15.41ZM37.94 16.46Q36.62 16.46 35.56 16.20Q34.49 15.94 33.24 15.41L33.24 15.41Q33.50 13.80 33.43 12.62L33.43 12.62Q33.96 12.46 34.73 12.46L34.73 12.46Q34.78 13.94 35.68 14.62Q36.58 15.29 38.21 15.29L38.21 15.29Q39.60 15.29 40.40 14.86Q41.21 14.42 41.21 13.70L41.21 13.70Q41.21 13.20 40.81 12.83Q40.42 12.46 39.85 12.20Q39.29 11.95 38.21 11.57L38.21 11.57Q36.72 11.06 35.82 10.62Q34.92 10.18 34.26 9.40Q33.60 8.62 33.60 7.44L33.60 7.44Q33.60 5.83 34.81 4.99Q36.02 4.15 38.14 4.15L38.14 4.15Q39.26 4.15 40.38 4.37Q41.50 4.58 42.12 4.92L42.12 4.92Q42.10 5.18 42.10 5.74L42.10 5.74Q42.10 6.82 42.24 7.44L42.24 7.44Q41.74 7.70 40.92 7.70L40.92 7.70Q40.58 6.34 39.83 5.80Q39.07 5.26 37.97 5.26L37.97 5.26Q36.91 5.26 36.25 5.62Q35.59 5.98 35.59 6.67L35.59 6.67Q35.59 7.46 36.36 7.94Q37.13 8.42 38.76 9L38.76 9Q40.15 9.48 41.04 9.91Q41.93 10.34 42.55 11.08Q43.18 11.81 43.18 12.91L43.18 12.91Q43.18 14.50 41.88 15.48Q40.58 16.46 37.94 16.46L37.94 16.46ZM51.74 16.46Q50.42 16.46 49.36 16.20Q48.29 15.94 47.04 15.41L47.04 15.41Q47.30 13.80 47.23 12.62L47.23 12.62Q47.76 12.46 48.53 12.46L48.53 12.46Q48.58 13.94 49.48 14.62Q50.38 15.29 52.01 15.29L52.01 15.29Q53.40 15.29 54.20 14.86Q55.01 14.42 55.01 13.70L55.01 13.70Q55.01 13.20 54.61 12.83Q54.22 12.46 53.65 12.20Q53.09 11.95 52.01 11.57L52.01 11.57Q50.52 11.06 49.62 10.62Q48.72 10.18 48.06 9.40Q47.40 8.62 47.40 7.44L47.40 7.44Q47.40 5.83 48.61 4.99Q49.82 4.15 51.94 4.15L51.94 4.15Q53.06 4.15 54.18 4.37Q55.30 4.58 55.92 4.92L55.92 4.92Q55.90 5.18 55.90 5.74L55.90 5.74Q55.90 6.82 56.04 7.44L56.04 7.44Q55.54 7.70 54.72 7.70L54.72 7.70Q54.38 6.34 53.63 5.80Q52.87 5.26 51.77 5.26L51.77 5.26Q50.71 5.26 50.05 5.62Q49.39 5.98 49.39 6.67L49.39 6.67Q49.39 7.46 50.16 7.94Q50.93 8.42 52.56 9L52.56 9Q53.95 9.48 54.84 9.91Q55.73 10.34 56.35 11.08Q56.98 11.81 56.98 12.91L56.98 12.91Q56.98 14.50 55.68 15.48Q54.38 16.46 51.74 16.46L51.74 16.46ZM67.03 16.51Q64.97 16.51 63.38 15.74Q61.80 14.98 60.92 13.58Q60.05 12.19 60.05 10.34L60.05 10.34Q60.05 8.52 60.92 7.10Q61.80 5.69 63.40 4.91Q64.99 4.13 67.08 4.13L67.08 4.13Q69.14 4.13 70.73 4.90Q72.31 5.66 73.19 7.07Q74.06 8.47 74.06 10.30L74.06 10.30Q74.06 12.14 73.19 13.55Q72.31 14.95 70.72 15.73Q69.12 16.51 67.03 16.51L67.03 16.51ZM67.37 15.41Q69.31 15.41 70.45 14.11Q71.59 12.82 71.59 10.66L71.59 10.66Q71.59 9.10 70.97 7.86Q70.34 6.62 69.23 5.93Q68.11 5.23 66.72 5.23L66.72 5.23Q64.78 5.23 63.65 6.54Q62.52 7.85 62.52 9.98L62.52 9.98Q62.52 11.59 63.14 12.83Q63.77 14.06 64.87 14.74Q65.98 15.41 67.37 15.41L67.37 15.41ZM83.04 0.02Q85.85 0.02 87.17 1.33Q88.49 2.64 88.49 4.68L88.49 4.68Q88.49 6.12 87.86 7.38Q87.24 8.64 86.00 9.43Q84.77 10.22 83.04 10.22L83.04 10.22Q82.03 10.22 81.36 9.96L81.36 9.96Q81.31 9.67 81.31 9.50L81.31 9.50Q81.31 9.22 81.38 8.98L81.38 8.98Q81.98 9.12 82.66 9.12L82.66 9.12Q86.04 9.12 86.04 5.38L86.04 5.38Q86.04 3.36 85.06 2.22Q84.07 1.08 81.98 1.08L81.98 1.08Q81.46 1.08 80.76 1.22L80.76 1.22L80.76 12.77Q80.76 13.80 80.98 14.34Q81.19 14.88 81.64 15.08Q82.08 15.29 82.90 15.34L82.90 15.34Q83.02 15.67 83.02 16.37L83.02 16.37Q81.91 16.30 79.99 16.30L79.99 16.30Q77.66 16.30 76.73 16.37L76.73 16.37Q76.73 15.67 76.85 15.34L76.85 15.34Q77.81 15.29 78.16 14.87Q78.50 14.45 78.50 13.25L78.50 13.25L78.50 3.12Q78.50 1.92 78.16 1.50Q77.81 1.08 76.85 1.03L76.85 1.03Q76.73 0.70 76.73 0L76.73 0Q77.98 0.07 79.99 0.07L79.99 0.07L83.04 0.02ZM97.63 16.51Q95.57 16.51 93.98 15.74Q92.40 14.98 91.52 13.58Q90.65 12.19 90.65 10.34L90.65 10.34Q90.65 8.52 91.52 7.10Q92.40 5.69 94.00 4.91Q95.59 4.13 97.68 4.13L97.68 4.13Q99.74 4.13 101.33 4.90Q102.91 5.66 103.79 7.07Q104.66 8.47 104.66 10.30L104.66 10.30Q104.66 12.14 103.79 13.55Q102.91 14.95 101.32 15.73Q99.72 16.51 97.63 16.51L97.63 16.51ZM97.97 15.41Q99.91 15.41 101.05 14.11Q102.19 12.82 102.19 10.66L102.19 10.66Q102.19 9.10 101.57 7.86Q100.94 6.62 99.83 5.93Q98.71 5.23 97.32 5.23L97.32 5.23Q95.38 5.23 94.25 6.54Q93.12 7.85 93.12 9.98L93.12 9.98Q93.12 11.59 93.74 12.83Q94.37 14.06 95.47 14.74Q96.58 15.41 97.97 15.41L97.97 15.41ZM124.78 15.34Q124.90 15.72 124.90 16.34L124.90 16.34Q123.60 16.30 122.21 16.30L122.21 16.30Q120.96 16.30 119.57 16.34L119.57 16.34Q119.57 15.86 119.69 15.34L119.69 15.34Q120.48 15.26 120.77 15.04Q121.06 14.81 121.06 14.16L121.06 14.16Q121.06 13.99 120.96 13.13L120.96 13.13L120.22 7.42L115.94 15.98Q115.56 16.13 115.01 16.13L115.01 16.13L110.57 7.46L109.90 12.53Q109.82 13.18 109.82 13.63L109.82 13.63Q109.82 14.57 110.15 14.93Q110.47 15.29 111.26 15.34L111.26 15.34Q111.38 15.72 111.38 16.34L111.38 16.34Q110.09 16.30 109.10 16.30L109.10 16.30Q108.05 16.30 106.94 16.34L106.94 16.34Q106.94 15.72 107.06 15.34L107.06 15.34Q107.64 15.29 107.96 15.05Q108.29 14.81 108.47 14.22Q108.65 13.63 108.77 12.48L108.77 12.48L109.44 7.20Q109.46 7.03 109.46 6.72L109.46 6.72Q109.46 5.90 109.14 5.62Q108.82 5.33 108.02 5.33L108.02 5.33Q107.90 4.90 107.90 4.25L107.90 4.25Q108.82 4.30 109.66 4.30L109.66 4.30Q110.33 4.30 111.38 4.25L111.38 4.25L116.06 13.25L120.50 4.25Q121.56 4.30 122.30 4.30L122.30 4.30Q122.88 4.30 124.03 4.25L124.03 4.25Q124.03 4.94 123.91 5.33L123.91 5.33Q123.19 5.33 122.83 5.65Q122.47 5.98 122.47 6.74L122.47 6.74Q122.47 7.06 122.50 7.25L122.50 7.25L123.24 12.91Q123.38 13.94 123.54 14.42Q123.70 14.90 123.97 15.10Q124.25 15.29 124.78 15.34L124.78 15.34ZM134.52 16.51Q132.46 16.51 130.87 15.74Q129.29 14.98 128.41 13.58Q127.54 12.19 127.54 10.34L127.54 10.34Q127.54 8.52 128.41 7.10Q129.29 5.69 130.88 4.91Q132.48 4.13 134.57 4.13L134.57 4.13Q136.63 4.13 138.22 4.90Q139.80 5.66 140.68 7.07Q141.55 8.47 141.55 10.30L141.55 10.30Q141.55 12.14 140.68 13.55Q139.80 14.95 138.20 15.73Q136.61 16.51 134.52 16.51L134.52 16.51ZM134.86 15.41Q136.80 15.41 137.94 14.11Q139.08 12.82 139.08 10.66L139.08 10.66Q139.08 9.10 138.46 7.86Q137.83 6.62 136.72 5.93Q135.60 5.23 134.21 5.23L134.21 5.23Q132.26 5.23 131.14 6.54Q130.01 7.85 130.01 9.98L130.01 9.98Q130.01 11.59 130.63 12.83Q131.26 14.06 132.36 14.74Q133.46 15.41 134.86 15.41L134.86 15.41ZM144.70 16.34Q144.70 15.60 144.82 15.26L144.82 15.26Q145.39 15.22 145.70 15.07Q146.02 14.93 146.15 14.54Q146.28 14.16 146.28 13.39L146.28 13.39L146.28 7.08Q146.28 6.38 146.15 6.02Q146.02 5.66 145.72 5.52Q145.42 5.38 144.82 5.33L144.82 5.33Q144.72 4.94 144.72 4.25L144.72 4.25Q146.06 4.30 147.82 4.30L147.82 4.30Q148.61 4.30 149.02 4.27L149.02 4.27L150.29 4.25Q153.77 4.25 156.01 5.47Q158.26 6.70 158.26 9.98L158.26 9.98Q158.26 13.73 155.71 15.01Q153.17 16.30 150.26 16.30L150.26 16.30Q146.81 16.30 144.70 16.34L144.70 16.34ZM150.36 15.22Q152.09 15.22 153.28 14.82Q154.46 14.42 155.17 13.34Q155.88 12.26 155.88 10.30L155.88 10.30Q155.88 7.63 154.21 6.46Q152.54 5.28 149.98 5.28L149.98 5.28Q148.99 5.28 148.49 5.42L148.49 5.42L148.49 13.34Q148.49 14.11 148.63 14.51Q148.78 14.90 149.17 15.06Q149.57 15.22 150.36 15.22L150.36 15.22ZM167.88 16.51Q165.82 16.51 164.23 15.74Q162.65 14.98 161.77 13.58Q160.90 12.19 160.90 10.34L160.90 10.34Q160.90 8.52 161.77 7.10Q162.65 5.69 164.24 4.91Q165.84 4.13 167.93 4.13L167.93 4.13Q169.99 4.13 171.58 4.90Q173.16 5.66 174.04 7.07Q174.91 8.47 174.91 10.30L174.91 10.30Q174.91 12.14 174.04 13.55Q173.16 14.95 171.56 15.73Q169.97 16.51 167.88 16.51L167.88 16.51ZM168.22 15.41Q170.16 15.41 171.30 14.11Q172.44 12.82 172.44 10.66L172.44 10.66Q172.44 9.10 171.82 7.86Q171.19 6.62 170.08 5.93Q168.96 5.23 167.57 5.23L167.57 5.23Q165.62 5.23 164.50 6.54Q163.37 7.85 163.37 9.98L163.37 9.98Q163.37 11.59 163.99 12.83Q164.62 14.06 165.72 14.74Q166.82 15.41 168.22 15.41L168.22 15.41ZM187.90 13.49Q188.54 14.45 189.23 14.84Q189.91 15.24 190.92 15.29L190.92 15.29Q190.92 15.98 190.82 16.30L190.82 16.30Q188.78 16.30 187.37 16.46L187.37 16.46Q187.20 16.18 186.72 15.46L186.72 15.46L185.64 13.70Q184.75 12.22 183.29 11.28L183.29 11.28L182.52 11.30L181.82 11.28L181.82 13.46Q181.82 14.26 181.94 14.64Q182.06 15.02 182.34 15.17Q182.62 15.31 183.19 15.34L183.19 15.34Q183.29 15.62 183.29 16.34L183.29 16.34Q182.40 16.30 180.67 16.30L180.67 16.30Q179.40 16.30 178.06 16.34L178.06 16.34Q178.06 15.67 178.18 15.34L178.18 15.34Q178.78 15.29 179.08 15.14Q179.38 15 179.50 14.64Q179.62 14.28 179.62 13.56L179.62 13.56L179.62 7.06Q179.62 6.02 179.33 5.69Q179.04 5.35 178.18 5.30L178.18 5.30Q178.06 4.94 178.06 4.25L178.06 4.25Q178.97 4.30 180.70 4.30L180.70 4.30L182.42 4.27Q183.67 4.22 184.32 4.22L184.32 4.22Q186.62 4.22 187.80 5.11Q188.98 6 188.98 7.39L188.98 7.39Q188.98 8.78 188.09 9.68Q187.20 10.58 185.62 10.90L185.62 10.90Q186.22 11.26 186.61 11.72Q187.01 12.19 187.90 13.49L187.90 13.49ZM182.74 10.10Q184.46 10.10 185.57 9.49Q186.67 8.88 186.67 7.70L186.67 7.70Q186.67 5.26 183.31 5.26L183.31 5.26Q182.54 5.26 181.82 5.40L181.82 5.40L181.82 10.03Q182.33 10.10 182.74 10.10L182.74 10.10ZM200.09 16.51Q198.02 16.51 196.44 15.74Q194.86 14.98 193.98 13.58Q193.10 12.19 193.10 10.34L193.10 10.34Q193.10 8.52 193.98 7.10Q194.86 5.69 196.45 4.91Q198.05 4.13 200.14 4.13L200.14 4.13Q202.20 4.13 203.78 4.90Q205.37 5.66 206.24 7.07Q207.12 8.47 207.12 10.30L207.12 10.30Q207.12 12.14 206.24 13.55Q205.37 14.95 203.77 15.73Q202.18 16.51 200.09 16.51L200.09 16.51ZM200.42 15.41Q202.37 15.41 203.51 14.11Q204.65 12.82 204.65 10.66L204.65 10.66Q204.65 9.10 204.02 7.86Q203.40 6.62 202.28 5.93Q201.17 5.23 199.78 5.23L199.78 5.23Q197.83 5.23 196.70 6.54Q195.58 7.85 195.58 9.98L195.58 9.98Q195.58 11.59 196.20 12.83Q196.82 14.06 197.93 14.74Q199.03 15.41 200.42 15.41L200.42 15.41Z" transform="translate(0, 49.619)"></path></svg>